#!OML:ASF E:\VariousWalksJay\Project 1\Capture day 1\Session 1\Actor2.ASF
:FULLY-SPECIFIED
:DEGREES
986
root 3.34058 16.3959 -1.47839 203.86 -60.1993 -198.98
lowerback 3.55374 0.99764 2.76964
upperback 5.91744 1.20232 -3.18397
thorax 4.26971 0.696906 -4.8702
lowerneck -4.15477 13.8021 6.2907
upperneck -1.45967 18.0675 -2.74922
head 1.05724 8.95061 -1.34596
rclavicle 3.1408e-014 1.03368e-014
rhumerus -63.5284 10.263 -121.015
rradius 57.2059
rwrist 15.6213
rhand -4.33477 8.65561
rfingers 7.12502
rthumb 21.4325 -20.1789
lclavicle 3.1408e-014 1.03368e-014
lhumerus -75.5833 -31.4468 134.153
lradius 55.9989
lwrist 3.50846
lhand -5.60765 -56.8805
lfingers 7.12502
lthumb 20.2095 -27.9118
rfemur -51.0506 5.64005 0.615648
rtibia 58.7959
rfoot -7.767 -4.15554
rtoes -7.45408
lfemur -6.85023 10.2603 -20.0801
ltibia 55.7375
lfoot -18.2042 17.0437
ltoes -11.511
987
root 3.29957 16.4984 -1.64605 205.938 -61.3961 -200.97
lowerback 2.75496 0.959217 1.65578
upperback 5.57828 1.16676 -3.36423
thorax 4.33166 0.640839 -4.41575
lowerneck -4.49658 13.5785 6.08914
upperneck -1.03716 17.7486 -2.22799
head 1.16366 8.79923 -1.13851
rclavicle -7.05686e-014 -4.53229e-014
rhumerus -63.6467 10.2271 -121.144
rradius 57.4132
rwrist 14.852
rhand -3.6373 8.41307
rfingers 7.12502
rthumb 22.1022 -20.3437
lclavicle -7.05686e-014 -4.53229e-014
lhumerus -75.6495 -31.4141 133.965
lradius 56.0925
lwrist 3.67553
lhand -4.77598 -56.1555
lfingers 7.12502
lthumb 21.0086 -27.2734
rfemur -49.7658 6.08294 -0.156087
rtibia 57.8181
rfoot -8.40795 -4.84314
rtoes -7.3654
lfemur -8.31079 8.76985 -20.3792
ltibia 57.9428
lfoot -17.9233 16.7517
ltoes -11.169
988
root 3.2584 16.5973 -1.8081 207.558 -62.6592 -202.522
lowerback 2.08159 0.916088 0.859678
upperback 5.29488 1.1319 -3.47091
thorax 4.39341 0.597222 -4.06787
lowerneck -4.82308 13.3461 5.85607
upperneck -0.700442 17.4192 -1.72093
head 1.24089 8.64271 -0.936975
rclavicle -6.79844e-014 1.90833e-014
rhumerus -63.7815 10.2378 -121.267
rradius 57.6113
rwrist 14.1544
rhand -2.87154 8.45627
rfingers 7.12502
rthumb 22.8372 -20.2117
lclavicle -6.79844e-014 1.90833e-014
lhumerus -75.7135 -31.3645 133.796
lradius 56.1972
lwrist 3.8021
lhand -3.94586 -55.4362
lfingers 7.12502
lthumb 21.806 -26.6447
rfemur -48.3453 6.63943 -0.533664
rtibia 56.7548
rfoot -9.02662 -5.65622
rtoes -7.42301
lfemur -9.85841 7.46035 -20.3558
ltibia 60.6248
lfoot -17.7795 16.5959
ltoes -10.7526
989
root 3.21709 16.6927 -1.96419 208.726 -64.0077 -203.662
lowerback 1.53619 0.874397 0.364889
upperback 5.0672 1.0995 -3.51306
thorax 4.45005 0.566166 -3.82578
lowerneck -5.11963 13.1013 5.60783
upperneck -0.447802 17.076 -1.23197
head 1.28894 8.47912 -0.745448
rclavicle -5.04913e-014 -1.55052e-014
rhumerus -63.9324 10.2739 -121.386
rradius 57.8017
rwrist 13.5176
rhand -2.13255 8.78686
rfingers 7.12502
rthumb 23.5463 -19.7918
lclavicle -5.04913e-014 -1.55052e-014
lhumerus -75.789 -31.3111 133.677
lradius 56.2803
lwrist 3.90043
lhand -3.11798 -54.7455
lfingers 7.12502
lthumb 22.6007 -26.0485
rfemur -46.7981 7.25556 -0.53806
rtibia 55.6271
rfoot -9.60565 -6.5348
rtoes -7.52943
lfemur -11.449 6.33343 -20.0432
ltibia 63.6931
lfoot -17.7338 16.4469
ltoes -10.3458
990
root 3.17479 16.7845 -2.11445 209.606 -65.4331 -204.581
lowerback 1.10363 0.831922 0.0784532
upperback 4.89213 1.06301 -3.51476
thorax 4.50283 0.540587 -3.66144
lowerneck -5.38184 12.8427 5.34754
upperneck -0.262362 16.7179 -0.754552
head 1.31226 8.308 -0.561711
rclavicle 6.06293e-014 2.0276e-014
rhumerus -64.1129 10.3253 -121.501
rradius 57.9859
rwrist 12.9704
rhand -1.66704 9.1659
rfingers 7.12502
rthumb 23.9927 -19.3547
lclavicle 6.06293e-014 2.0276e-014
lhumerus -75.9029 -31.2523 133.64
lradius 56.3317
lwrist 3.97845
lhand -2.31028 -54.0858
lfingers 7.12502
lthumb 23.3758 -25.4853
rfemur -45.1361 7.84169 -0.274734
rtibia 54.4643
rfoot -10.1385 -7.3897
rtoes -7.70437
lfemur -13.0432 5.34387 -19.5579
ltibia 67.0508
lfoot -17.7723 16.1587
ltoes -9.9688
991
root 3.13162 16.872 -2.25847 210.42 -66.9124 -205.512
lowerback 0.774982 0.781473 -0.0982976
upperback 4.76315 1.01183 -3.50435
thorax 4.5469 0.511235 -3.54861
lowerneck -5.61486 12.5697 5.08343
upperneck -0.123228 16.3438 -0.291706
head 1.31964 8.12885 -0.386221
rclavicle 4.17448e-015 -3.97569e-014
rhumerus -64.328 10.3838 -121.621
rradius 58.1641
rwrist 12.4919
rhand -1.50209 9.5123
rfingers 7.12502
rthumb 24.1509 -18.9874
lclavicle 4.17448e-015 -3.97569e-014
lhumerus -76.0605 -31.1831 133.694
lradius 56.3505
lwrist 4.04408
lhand -1.52861 -53.4519
lfingers 7.12502
lthumb 24.1254 -24.9488
rfemur -43.3886 8.30795 0.134882
rtibia 53.306
rfoot -10.6306 -8.12342
rtoes -7.96507
lfemur -14.6255 4.45557 -19.0331
ltibia 70.5999
lfoot -17.8116 15.6954
ltoes -9.83128
992
root 3.09209 16.9531 -2.39339 211.211 -68.3297 -206.432
lowerback 0.543284 0.757197 -0.201795
upperback 4.6441 0.991809 -3.49789
thorax 4.55027 0.499759 -3.48137
lowerneck -5.82739 12.2834 4.81404
upperneck -0.0084563 15.955 0.157808
head 1.31959 7.94253 -0.216538
rclavicle 3.18055e-015 -4.25399e-014
rhumerus -64.5831 10.4495 -121.746
rradius 58.3434
rwrist 12.0732
rhand -1.70395 9.61522
rfingers 7.12502
rthumb 23.9573 -18.91
lclavicle 3.18055e-015 -4.25399e-014
lhumerus -76.2432 -31.0963 133.828
lradius 56.3306
lwrist 4.1375
lhand -0.73888 -52.8437
lfingers 7.12502
lthumb 24.8825 -24.4432
rfemur -41.722 8.6836 0.608783
rtibia 52.188
rfoot -11.041 -8.66363
rtoes -8.44109
lfemur -16.2703 3.7503 -18.535
ltibia 74.2875
lfoot -17.8393 15.0338
ltoes -9.88842
993
root 3.05418 17.0277 -2.52064 212.368 -69.6788 -207.753
lowerback 0.367735 0.735781 -0.369982
upperback 4.54327 0.974743 -3.52315
thorax 4.5407 0.486792 -3.41141
lowerneck -6.03076 11.9886 4.53244
upperneck 0.102116 15.5577 0.59759
head 1.3199 7.75242 -0.0485317
rclavicle 2.98177e-016 -5.88403e-014
rhumerus -64.8734 10.5188 -121.868
rradius 58.5213
rwrist 11.6966
rhand -2.11091 9.47032
rfingers 7.12502
rthumb 23.567 -19.1057
lclavicle 2.98177e-016 -5.88403e-014
lhumerus -76.447 -30.9815 134.024
lradius 56.2996
lwrist 4.28757
lhand 0.09547 -52.2455
lfingers 7.12502
lthumb 25.6818 -23.9579
rfemur -40.1186 8.85826 0.987558
rtibia 51.1461
rfoot -11.4162 -8.92359
rtoes -9.07688
lfemur -17.95 3.14854 -18.2327
ltibia 78.0372
lfoot -17.8145 14.2759
ltoes -10.2901
994
root 3.0194 17.0948 -2.63959 214.013 -70.9065 -209.576
lowerback 0.244092 0.722987 -0.63335
upperback 4.45002 0.969249 -3.59452
thorax 4.50972 0.47566 -3.33607
lowerneck -6.22465 11.6931 4.26643
upperneck 0.218351 15.1604 1.01274
head 1.32748 7.56259 0.110558
rclavicle -3.60794e-014 -1.19271e-015
rhumerus -65.1967 10.596 -122
rradius 58.7075
rwrist 11.3404
rhand -2.66256 9.36424
rfingers 7.12502
rthumb 23.0378 -19.2788
lclavicle -3.60794e-014 -1.19271e-015
lhumerus -76.6458 -30.8283 134.228
lradius 56.2685
lwrist 4.53829
lhand 1.03367 -51.6606
lfingers 7.12502
lthumb 26.5801 -23.5059
rfemur -38.6294 8.8364 1.2131
rtibia 50.198
rfoot -11.7602 -8.85906
rtoes -9.93291
lfemur -19.6744 2.66169 -18.1704
ltibia 81.8099
lfoot -17.7739 13.448
ltoes -10.8636
995
root 2.98791 17.1541 -2.75135 216.1 -72.0011 -211.844
lowerback 0.165642 0.724572 -0.967815
upperback 4.36429 0.982585 -3.70072
thorax 4.46163 0.47106 -3.2568
lowerneck -6.41514 11.4009 4.01106
upperneck 0.348282 14.7681 1.40394
head 1.34524 7.37567 0.262646
rclavicle -1.14301e-014 -9.14409e-015
rhumerus -65.5425 10.6785 -122.137
rradius 58.8951
rwrist 11.0118
rhand -3.26196 8.38864
rfingers 7.12502
rthumb 22.4625 -20.325
lclavicle -1.14301e-014 -9.14409e-015
lhumerus -76.802 -30.6247 134.393
lradius 56.2407
lwrist 4.91014
lhand 2.12907 -51.0784
lfingers 7.12502
lthumb 27.628 -23.0869
rfemur -37.2626 8.65353 1.30707
rtibia 49.3488
rfoot -12.0995 -8.4666
rtoes -11.0014
lfemur -21.4268 2.30328 -18.3108
ltibia 85.5633
lfoot -17.7255 12.5844
ltoes -11.5344
